<svg width="409" height="167" viewBox="0 0 409 167" fill="none" xmlns="http://www.w3.org/2000/svg">
<rect width="409" height="167" fill="#2C3341"/>
<path d="M85.0006 124.916C61.8006 124.916 43.0006 106.016 43.0006 82.9159C42.9006 63.8159 55.8006 47.1159 74.2006 42.2159C77.5006 41.3159 80.8006 43.3159 81.7006 46.6159C82.6006 49.9159 80.6006 53.2159 77.3006 54.1159C64.3006 57.5159 55.1006 69.4159 55.1006 82.9159C55.1006 99.3159 68.5006 112.716 84.9006 112.716C101.301 112.716 114.701 99.3159 114.701 82.9159C114.701 80.3159 114.401 77.7159 113.701 75.2159C112.801 71.9159 114.801 68.6159 118.001 67.7159C121.301 66.8159 124.601 68.8159 125.501 72.0159C126.401 75.5159 126.901 79.2159 126.901 82.9159C127.001 106.116 108.101 124.916 85.0006 124.916Z" fill="#FF8C00"/>
<path d="M110.501 54.2158C110.501 59.2158 106.501 63.2158 101.501 63.2158C96.5006 63.2158 92.5006 59.2158 92.5006 54.2158C92.5006 49.2158 96.5006 45.2158 101.501 45.2158C106.501 45.2158 110.501 49.2158 110.501 54.2158Z" fill="#FF8C00"/>
<path d="M91.0006 98.5159C91.0006 106.816 84.3006 113.516 76.0006 113.516C67.7006 113.516 61.0006 106.816 61.0006 98.5159C61.0006 90.2159 67.7006 83.5159 76.0006 83.5159C84.3006 83.5159 91.0006 90.2159 91.0006 98.5159Z" fill="#FF8C00"/>
<path d="M163.201 65.5159C167.501 65.5159 172.101 66.9159 175.301 70.0159L171.701 75.9159C169.601 74.1159 166.501 72.7159 163.601 72.7159C157.201 72.7159 154.501 77.2159 154.501 81.8159C154.501 86.5159 157.401 91.4159 163.601 91.4159C166.801 91.4159 169.901 89.7159 172.201 87.5159L176.301 93.2159C173.501 96.1159 169.201 98.5159 163.301 98.5159C152.901 98.5159 146.401 91.4159 146.401 82.0159C146.301 72.6159 153.201 65.5159 163.201 65.5159Z" fill="white"/>
<path d="M195.001 65.5159C205.001 65.5159 211.801 72.6159 211.801 81.7159C211.801 91.0159 205.001 98.3159 195.001 98.3159C185.001 98.3159 178.201 91.0159 178.201 81.7159C178.201 72.6159 185.001 65.5159 195.001 65.5159ZM195.001 91.3159C200.101 91.3159 203.701 87.2159 203.701 81.8159C203.701 76.6159 200.101 72.7159 195.001 72.7159C189.901 72.7159 186.301 76.6159 186.301 81.8159C186.301 87.2159 189.901 91.3159 195.001 91.3159Z" fill="white"/>
<path d="M217.501 66.116H225.501L234.401 80.916C235.701 83.016 237.101 86.316 237.101 86.316H237.201C237.201 86.316 236.801 82.916 236.801 80.916V66.116H244.701V97.816H236.801L227.801 83.016C226.501 80.916 225.101 77.616 225.101 77.616H225.001C225.001 77.616 225.401 81.016 225.401 83.016V97.816H217.501V66.116Z" fill="white"/>
<path d="M258.701 72.7159H248.901V66.0159H276.301V72.7159H266.501V97.8159H258.601V72.7159H258.701Z" fill="white"/>
<path d="M285.401 66.116H293.701L304.601 97.816H296.501L294.501 91.116H284.501L282.601 97.816H274.501L285.401 66.116ZM292.701 85.016L290.901 78.816C290.301 76.816 289.601 73.316 289.601 73.316H289.501C289.501 73.316 288.801 76.816 288.201 78.816L286.401 85.016H292.701Z" fill="white"/>
<path d="M322.701 65.5159C327.001 65.5159 331.601 66.9159 334.801 70.0159L331.201 75.9159C329.101 74.1159 326.001 72.7159 323.101 72.7159C316.701 72.7159 314.001 77.2159 314.001 81.8159C314.001 86.5159 316.901 91.4159 323.101 91.4159C326.301 91.4159 329.401 89.7159 331.701 87.5159L335.801 93.2159C333.001 96.1159 328.701 98.5159 322.801 98.5159C312.401 98.5159 305.901 91.4159 305.901 82.0159C305.801 72.6159 312.801 65.5159 322.701 65.5159Z" fill="white"/>
<path d="M347.901 72.7159H338.101V66.0159H365.501V72.7159H355.701V97.8159H347.901V72.7159Z" fill="white"/>
</svg>
